<svg id="enrichment_category_graph_svg" height="368.39952pt" version="1.1" viewBox="0 0 659.39976 368.39952" width="659.39976pt" xmlns="http://www.w3.org/2000/svg" xmlns:xlink="http://www.w3.org/1999/xlink">
 <metadata>
  <rdf:rdf xmlns:cc="http://creativecommons.org/ns#" xmlns:dc="http://purl.org/dc/elements/1.1/" xmlns:rdf="http://www.w3.org/1999/02/22-rdf-syntax-ns#">
   <cc:work>
    <dc:type rdf:resource="http://purl.org/dc/dcmitype/StillImage"/>
    <dc:date>2026-05-21T19:56:14.432171</dc:date>
    <dc:format>image/svg+xml</dc:format>
    <dc:creator>
     <cc:agent>
      <dc:title>Matplotlib v3.4.2, https://matplotlib.org/</dc:title>
     </cc:agent>
    </dc:creator>
   </cc:work>
  </rdf:rdf>
 </metadata>
 <defs>
  <style type="text/css">*{stroke-linecap:butt;stroke-linejoin:round;}</style>
 </defs>
 <g id="figure_1">
  <g id="patch_1">
   <path d="M 0 368.39952 &#10;L 659.39976 368.39952 &#10;L 659.39976 0 &#10;L 0 0 &#10;z&#10;" style="fill:none;"/>
  </g>
  <g id="axes_1">
   <g id="patch_2">
    <path d="M 151.263125 337.022801 &#10;L 544.428241 337.022801 &#10;L 544.428241 21.214531 &#10;L 151.263125 21.214531 &#10;z&#10;" style="fill:none;"/>
   </g>
   <g id="matplotlib.axis_1">
    <g id="xtick_1">
     <g id="line2d_1">
      <path clip-path="url(#p6ffb92b7db)" d="M 191.587752 337.022801 &#10;L 191.587752 21.214531 &#10;" style="fill:none;stroke:#d3d3d3;stroke-dasharray:2.22,0.96;stroke-dashoffset:0;stroke-width:0.6;"/>
     </g>
     <g id="line2d_2"/>
     <g id="text_1">
      <text style="font-family:Arial;font-size:9px;font-stretch:normal;font-style:normal;font-weight:normal;text-anchor:middle;" transform="rotate(-0, 191.587752, 346.964832)" x="191.587752" y="346.964832">0.6</text>
     </g>
    </g>
    <g id="xtick_2">
     <g id="line2d_3">
      <path clip-path="url(#p6ffb92b7db)" d="M 256.695223 337.022801 &#10;L 256.695223 21.214531 &#10;" style="fill:none;stroke:#d3d3d3;stroke-dasharray:2.22,0.96;stroke-dashoffset:0;stroke-width:0.6;"/>
     </g>
     <g id="line2d_4"/>
     <g id="text_2">
      <text style="font-family:Arial;font-size:9px;font-stretch:normal;font-style:normal;font-weight:normal;text-anchor:middle;" transform="rotate(-0, 256.695223, 346.964832)" x="256.695223" y="346.964832">0.7</text>
     </g>
    </g>
    <g id="xtick_3">
     <g id="line2d_5">
      <path clip-path="url(#p6ffb92b7db)" d="M 321.802695 337.022801 &#10;L 321.802695 21.214531 &#10;" style="fill:none;stroke:#d3d3d3;stroke-dasharray:2.22,0.96;stroke-dashoffset:0;stroke-width:0.6;"/>
     </g>
     <g id="line2d_6"/>
     <g id="text_3">
      <text style="font-family:Arial;font-size:9px;font-stretch:normal;font-style:normal;font-weight:normal;text-anchor:middle;" transform="rotate(-0, 321.802695, 346.964832)" x="321.802695" y="346.964832">0.8</text>
     </g>
    </g>
    <g id="xtick_4">
     <g id="line2d_7">
      <path clip-path="url(#p6ffb92b7db)" d="M 386.910166 337.022801 &#10;L 386.910166 21.214531 &#10;" style="fill:none;stroke:#d3d3d3;stroke-dasharray:2.22,0.96;stroke-dashoffset:0;stroke-width:0.6;"/>
     </g>
     <g id="line2d_8"/>
     <g id="text_4">
      <text style="font-family:Arial;font-size:9px;font-stretch:normal;font-style:normal;font-weight:normal;text-anchor:middle;" transform="rotate(-0, 386.910166, 346.964832)" x="386.910166" y="346.964832">0.9</text>
     </g>
    </g>
    <g id="xtick_5">
     <g id="line2d_9">
      <path clip-path="url(#p6ffb92b7db)" d="M 452.017637 337.022801 &#10;L 452.017637 21.214531 &#10;" style="fill:none;stroke:#d3d3d3;stroke-dasharray:2.22,0.96;stroke-dashoffset:0;stroke-width:0.6;"/>
     </g>
     <g id="line2d_10"/>
     <g id="text_5">
      <text style="font-family:Arial;font-size:9px;font-stretch:normal;font-style:normal;font-weight:normal;text-anchor:middle;" transform="rotate(-0, 452.017637, 346.964832)" x="452.017637" y="346.964832">1.0</text>
     </g>
    </g>
    <g id="xtick_6">
     <g id="line2d_11">
      <path clip-path="url(#p6ffb92b7db)" d="M 517.125108 337.022801 &#10;L 517.125108 21.214531 &#10;" style="fill:none;stroke:#d3d3d3;stroke-dasharray:2.22,0.96;stroke-dashoffset:0;stroke-width:0.6;"/>
     </g>
     <g id="line2d_12"/>
     <g id="text_6">
      <text style="font-family:Arial;font-size:9px;font-stretch:normal;font-style:normal;font-weight:normal;text-anchor:middle;" transform="rotate(-0, 517.125108, 346.964832)" x="517.125108" y="346.964832">1.1</text>
     </g>
    </g>
    <g id="text_7">
     <text style="font-family:Arial;font-size:9px;font-stretch:normal;font-style:normal;font-weight:normal;text-anchor:middle;" transform="rotate(-0, 347.845683, 359.305301)" x="347.845683" y="359.305301">Signal</text>
    </g>
   </g>
   <g id="matplotlib.axis_2">
    <g id="ytick_1">
     <g id="line2d_13"/>
     <g id="text_8">
      <text style="font-family:Arial;font-size:9px;font-stretch:normal;font-style:normal;font-weight:normal;text-anchor:end;" transform="rotate(-0, 147.763125, 53.14539)" x="147.763125" y="53.14539">Structural constituent of chromatin</text>
     </g>
    </g>
    <g id="ytick_2">
     <g id="line2d_14"/>
     <g id="text_9">
      <text style="font-family:Arial;font-size:9px;font-stretch:normal;font-style:normal;font-weight:normal;text-anchor:end;" transform="rotate(-0, 147.763125, 81.910076)" x="147.763125" y="81.910076">Growth factor activity</text>
     </g>
    </g>
    <g id="ytick_3">
     <g id="line2d_15"/>
     <g id="text_10">
      <text style="font-family:Arial;font-size:9px;font-stretch:normal;font-style:normal;font-weight:normal;" transform="translate(18.217969 106.451794)">Fibroblast growth factor receptor</text>
      <text style="font-family:Arial;font-size:9px;font-stretch:normal;font-style:normal;font-weight:normal;" transform="translate(118.739531 116.07645)">binding</text>
     </g>
    </g>
    <g id="ytick_4">
     <g id="line2d_16"/>
     <g id="text_11">
      <text style="font-family:Arial;font-size:9px;font-stretch:normal;font-style:normal;font-weight:normal;text-anchor:end;" transform="rotate(-0, 147.763125, 139.329762)" x="147.763125" y="139.329762">Signaling receptor regulator activity</text>
     </g>
    </g>
    <g id="ytick_5">
     <g id="line2d_17"/>
     <g id="text_12">
      <text style="font-family:Arial;font-size:9px;font-stretch:normal;font-style:normal;font-weight:normal;text-anchor:end;" transform="rotate(-0, 147.763125, 167.984761)" x="147.763125" y="167.984761">Receptor ligand activity</text>
     </g>
    </g>
    <g id="ytick_6">
     <g id="line2d_18"/>
     <g id="text_13">
      <text style="font-family:Arial;font-size:9px;font-stretch:normal;font-style:normal;font-weight:normal;text-anchor:end;" transform="rotate(-0, 147.763125, 196.749447)" x="147.763125" y="196.749447">Glycosaminoglycan binding</text>
     </g>
    </g>
    <g id="ytick_7">
     <g id="line2d_19"/>
     <g id="text_14">
      <text style="font-family:Arial;font-size:9px;font-stretch:normal;font-style:normal;font-weight:normal;text-anchor:end;" transform="rotate(-0, 147.763125, 225.404446)" x="147.763125" y="225.404446">Heparin binding</text>
     </g>
    </g>
    <g id="ytick_8">
     <g id="line2d_20"/>
     <g id="text_15">
      <text style="font-family:Arial;font-size:9px;font-stretch:normal;font-style:normal;font-weight:normal;text-anchor:end;" transform="rotate(-0, 147.763125, 254.114289)" x="147.763125" y="254.114289">Retinal binding</text>
     </g>
    </g>
    <g id="ytick_9">
     <g id="line2d_21"/>
     <g id="text_16">
      <text style="font-family:Arial;font-size:9px;font-stretch:normal;font-style:normal;font-weight:normal;text-anchor:end;" transform="rotate(-0, 147.763125, 282.878975)" x="147.763125" y="282.878975">Signaling receptor binding</text>
     </g>
    </g>
    <g id="ytick_10">
     <g id="line2d_22"/>
     <g id="text_17">
      <text style="font-family:Arial;font-size:9px;font-stretch:normal;font-style:normal;font-weight:normal;text-anchor:end;" transform="rotate(-0, 147.763125, 311.588818)" x="147.763125" y="311.588818">Structural molecule activity</text>
     </g>
    </g>
   </g>
   <g id="patch_3">
    <path clip-path="url(#p6ffb92b7db)" d="M 151.263125 294.532234 &#10;L 544.428241 294.532234 &#10;L 544.428241 320.371092 &#10;L 151.263125 320.371092 &#10;z&#10;" style="fill:#1f7ab5;opacity:0.1;"/>
   </g>
   <g id="patch_4">
    <path clip-path="url(#p6ffb92b7db)" d="M 151.263125 265.822391 &#10;L 544.428241 265.822391 &#10;L 544.428241 291.66125 &#10;L 151.263125 291.66125 &#10;z&#10;" style="fill:#5fc1c0;opacity:0.1;"/>
   </g>
   <g id="patch_5">
    <path clip-path="url(#p6ffb92b7db)" d="M 151.263125 237.112549 &#10;L 544.428241 237.112549 &#10;L 544.428241 262.951407 &#10;L 151.263125 262.951407 &#10;z&#10;" style="fill:#234da0;opacity:0.1;"/>
   </g>
   <g id="patch_6">
    <path clip-path="url(#p6ffb92b7db)" d="M 151.263125 179.692863 &#10;L 544.428241 179.692863 &#10;L 544.428241 234.241564 &#10;L 151.263125 234.241564 &#10;z&#10;" style="fill:#1f7ab5;opacity:0.1;"/>
   </g>
   <g id="patch_7">
    <path clip-path="url(#p6ffb92b7db)" d="M 151.263125 122.273178 &#10;L 544.428241 122.273178 &#10;L 544.428241 176.821879 &#10;L 151.263125 176.821879 &#10;z&#10;" style="fill:#a0dab8;opacity:0.1;"/>
   </g>
   <g id="patch_8">
    <path clip-path="url(#p6ffb92b7db)" d="M 151.263125 93.563335 &#10;L 544.428241 93.563335 &#10;L 544.428241 119.402193 &#10;L 151.263125 119.402193 &#10;z&#10;" style="fill:#2fa4c2;opacity:0.1;"/>
   </g>
   <g id="patch_9">
    <path clip-path="url(#p6ffb92b7db)" d="M 151.263125 64.853492 &#10;L 544.428241 64.853492 &#10;L 544.428241 90.692351 &#10;L 151.263125 90.692351 &#10;z&#10;" style="fill:#d6efb3;opacity:0.1;"/>
   </g>
   <g id="patch_10">
    <path clip-path="url(#p6ffb92b7db)" d="M 151.263125 36.143649 &#10;L 544.428241 36.143649 &#10;L 544.428241 61.982508 &#10;L 151.263125 61.982508 &#10;z&#10;" style="fill:#d6efb3;opacity:0.1;"/>
   </g>
   <g id="horizontalLine_Function:GO.0030527">
    <path data-original-stroke="grey" clip-path="url(#p6ffb92b7db)" d="M 151.263125 49.924374 &#10;L 523.635855 49.924374 &#10;" style="fill:none;stroke:#d6efb3;stroke-linecap:square;stroke-width:3;"/>
   </g>
   <g id="horizontalLine_Function:GO.0008083">
    <path data-original-stroke="grey" clip-path="url(#p6ffb92b7db)" d="M 151.263125 78.634217 &#10;L 517.125108 78.634217 &#10;" style="fill:none;stroke:#d6efb3;stroke-linecap:square;stroke-width:3;"/>
   </g>
   <g id="horizontalLine_Function:GO.0005104">
    <path data-original-stroke="grey" clip-path="url(#p6ffb92b7db)" d="M 151.263125 107.344059 &#10;L 380.399419 107.344059 &#10;" style="fill:none;stroke:#2fa4c2;stroke-linecap:square;stroke-width:3;"/>
   </g>
   <g id="horizontalLine_Function:GO.0030545">
    <path data-original-stroke="grey" clip-path="url(#p6ffb92b7db)" d="M 151.263125 136.053902 &#10;L 354.35643 136.053902 &#10;" style="fill:none;stroke:#a0dab8;stroke-linecap:square;stroke-width:3;"/>
   </g>
   <g id="horizontalLine_Function:GO.0048018">
    <path data-original-stroke="grey" clip-path="url(#p6ffb92b7db)" d="M 151.263125 164.763745 &#10;L 282.738212 164.763745 &#10;" style="fill:none;stroke:#5fc1c0;stroke-linecap:square;stroke-width:3;"/>
   </g>
   <g id="horizontalLine_Function:GO.0005539">
    <path data-original-stroke="grey" clip-path="url(#p6ffb92b7db)" d="M 151.263125 193.473588 &#10;L 237.162982 193.473588 &#10;" style="fill:none;stroke:#1f7ab5;stroke-linecap:square;stroke-width:3;"/>
   </g>
   <g id="horizontalLine_Function:GO.0008201">
    <path data-original-stroke="grey" clip-path="url(#p6ffb92b7db)" d="M 151.263125 222.18343 &#10;L 185.077005 222.18343 &#10;" style="fill:none;stroke:#234da0;stroke-linecap:square;stroke-width:3;"/>
   </g>
   <g id="horizontalLine_Function:GO.0016918">
    <path data-original-stroke="grey" clip-path="url(#p6ffb92b7db)" d="M 151.263125 250.893273 &#10;L 237.162982 250.893273 &#10;" style="fill:none;stroke:#234da0;stroke-linecap:square;stroke-width:3;"/>
   </g>
   <g id="horizontalLine_Function:GO.0005102">
    <path data-original-stroke="grey" clip-path="url(#p6ffb92b7db)" d="M 151.263125 279.603116 &#10;L 224.141488 279.603116 &#10;" style="fill:none;stroke:#5fc1c0;stroke-linecap:square;stroke-width:3;"/>
   </g>
   <g id="horizontalLine_Function:GO.0005198">
    <path data-original-stroke="grey" clip-path="url(#p6ffb92b7db)" d="M 151.263125 308.312959 &#10;L 172.055511 308.312959 &#10;" style="fill:none;stroke:#1f7ab5;stroke-linecap:square;stroke-width:3;"/>
   </g>
   <g id="line2d_23">
    <path clip-path="url(#p6ffb92b7db)" d="M 151.263125 49.924374 &#10;L 523.635855 49.924374 &#10;" style="fill:none;stroke:#ffffff;stroke-linecap:square;stroke-opacity:0.4;stroke-width:3;"/>
   </g>
   <g id="line2d_24">
    <path clip-path="url(#p6ffb92b7db)" d="M 151.263125 78.634217 &#10;L 517.125108 78.634217 &#10;" style="fill:none;stroke:#ffffff;stroke-linecap:square;stroke-opacity:0.4;stroke-width:3;"/>
   </g>
   <g id="line2d_25">
    <path clip-path="url(#p6ffb92b7db)" d="M 151.263125 107.344059 &#10;L 380.399419 107.344059 &#10;" style="fill:none;stroke:#ffffff;stroke-linecap:square;stroke-opacity:0.4;stroke-width:3;"/>
   </g>
   <g id="line2d_26">
    <path clip-path="url(#p6ffb92b7db)" d="M 151.263125 136.053902 &#10;L 354.35643 136.053902 &#10;" style="fill:none;stroke:#ffffff;stroke-linecap:square;stroke-opacity:0.4;stroke-width:3;"/>
   </g>
   <g id="line2d_27">
    <path clip-path="url(#p6ffb92b7db)" d="M 151.263125 164.763745 &#10;L 282.738212 164.763745 &#10;" style="fill:none;stroke:#ffffff;stroke-linecap:square;stroke-opacity:0.4;stroke-width:3;"/>
   </g>
   <g id="line2d_28">
    <path clip-path="url(#p6ffb92b7db)" d="M 151.263125 193.473588 &#10;L 237.162982 193.473588 &#10;" style="fill:none;stroke:#ffffff;stroke-linecap:square;stroke-opacity:0.4;stroke-width:3;"/>
   </g>
   <g id="line2d_29">
    <path clip-path="url(#p6ffb92b7db)" d="M 151.263125 222.18343 &#10;L 185.077005 222.18343 &#10;" style="fill:none;stroke:#ffffff;stroke-linecap:square;stroke-opacity:0.4;stroke-width:3;"/>
   </g>
   <g id="line2d_30">
    <path clip-path="url(#p6ffb92b7db)" d="M 151.263125 250.893273 &#10;L 237.162982 250.893273 &#10;" style="fill:none;stroke:#ffffff;stroke-linecap:square;stroke-opacity:0.4;stroke-width:3;"/>
   </g>
   <g id="line2d_31">
    <path clip-path="url(#p6ffb92b7db)" d="M 151.263125 279.603116 &#10;L 224.141488 279.603116 &#10;" style="fill:none;stroke:#ffffff;stroke-linecap:square;stroke-opacity:0.4;stroke-width:3;"/>
   </g>
   <g id="line2d_32">
    <path clip-path="url(#p6ffb92b7db)" d="M 151.263125 308.312959 &#10;L 172.055511 308.312959 &#10;" style="fill:none;stroke:#ffffff;stroke-linecap:square;stroke-opacity:0.4;stroke-width:3;"/>
   </g>
   <g id="dots_plot">
    <path id="circle_Function:GO.0030527" data-original-stroke="grey" clip-path="url(#p6ffb92b7db)" d="M 523.635855 56.435234 &#10;C 525.362555 56.435234 527.018767 55.749209 528.239729 54.528248 &#10;C 529.46069 53.307286 530.146716 51.651074 530.146716 49.924374 &#10;C 530.146716 48.197674 529.46069 46.541462 528.239729 45.3205 &#10;C 527.018767 44.099539 525.362555 43.413513 523.635855 43.413513 &#10;C 521.909155 43.413513 520.252943 44.099539 519.031981 45.3205 &#10;C 517.81102 46.541462 517.124995 48.197674 517.124995 49.924374 &#10;C 517.124995 51.651074 517.81102 53.307286 519.031981 54.528248 &#10;C 520.252943 55.749209 521.909155 56.435234 523.635855 56.435234 &#10;z&#10;" style="fill:#d6efb3;stroke:#d6efb3;stroke-width:2.2;"/>
    <path id="circle_Function:GO.0008083" data-original-stroke="grey" clip-path="url(#p6ffb92b7db)" d="M 517.125108 86.006315 &#10;C 519.080211 86.006315 520.955502 85.229544 522.337968 83.847077 &#10;C 523.720435 82.46461 524.497206 80.58932 524.497206 78.634217 &#10;C 524.497206 76.679114 523.720435 74.803823 522.337968 73.421356 &#10;C 520.955502 72.03889 519.080211 71.262119 517.125108 71.262119 &#10;C 515.170005 71.262119 513.294714 72.03889 511.912248 73.421356 &#10;C 510.529781 74.803823 509.75301 76.679114 509.75301 78.634217 &#10;C 509.75301 80.58932 510.529781 82.46461 511.912248 83.847077 &#10;C 513.294714 85.229544 515.170005 86.006315 517.125108 86.006315 &#10;z&#10;" style="fill:#d6efb3;stroke:#d6efb3;stroke-width:2.2;"/>
    <path id="circle_Function:GO.0005104" data-original-stroke="grey" clip-path="url(#p6ffb92b7db)" d="M 380.399419 111.642694 &#10;C 381.53943 111.642694 382.632903 111.189763 383.439012 110.383653 &#10;C 384.245122 109.577544 384.698053 108.484071 384.698053 107.344059 &#10;C 384.698053 106.204048 384.245122 105.110575 383.439012 104.304466 &#10;C 382.632903 103.498356 381.53943 103.045425 380.399419 103.045425 &#10;C 379.259407 103.045425 378.165934 103.498356 377.359825 104.304466 &#10;C 376.553715 105.110575 376.100784 106.204048 376.100784 107.344059 &#10;C 376.100784 108.484071 376.553715 109.577544 377.359825 110.383653 &#10;C 378.165934 111.189763 379.259407 111.642694 380.399419 111.642694 &#10;z&#10;" style="fill:#2fa4c2;stroke:#2fa4c2;stroke-width:2.2;"/>
    <path id="circle_Function:GO.0030545" data-original-stroke="grey" clip-path="url(#p6ffb92b7db)" d="M 354.35643 145.552186 &#10;C 356.875404 145.552186 359.291547 144.551387 361.072731 142.770203 &#10;C 362.853915 140.989019 363.854714 138.572876 363.854714 136.053902 &#10;C 363.854714 133.534928 362.853915 131.118785 361.072731 129.337601 &#10;C 359.291547 127.556418 356.875404 126.555619 354.35643 126.555619 &#10;C 351.837456 126.555619 349.421313 127.556418 347.640129 129.337601 &#10;C 345.858946 131.118785 344.858147 133.534928 344.858147 136.053902 &#10;C 344.858147 138.572876 345.858946 140.989019 347.640129 142.770203 &#10;C 349.421313 144.551387 351.837456 145.552186 354.35643 145.552186 &#10;z&#10;" style="fill:#a0dab8;stroke:#a0dab8;stroke-width:2.2;"/>
    <path id="circle_Function:GO.0048018" data-original-stroke="grey" clip-path="url(#p6ffb92b7db)" d="M 282.738212 173.610262 &#10;C 285.084336 173.610262 287.334684 172.678137 288.993644 171.019177 &#10;C 290.652604 169.360217 291.584729 167.109869 291.584729 164.763745 &#10;C 291.584729 162.417621 290.652604 160.167273 288.993644 158.508312 &#10;C 287.334684 156.849352 285.084336 155.917228 282.738212 155.917228 &#10;C 280.392088 155.917228 278.14174 156.849352 276.482779 158.508312 &#10;C 274.823819 160.167273 273.891694 162.417621 273.891694 164.763745 &#10;C 273.891694 167.109869 274.823819 169.360217 276.482779 171.019177 &#10;C 278.14174 172.678137 280.392088 173.610262 282.738212 173.610262 &#10;z&#10;" style="fill:#5fc1c0;stroke:#5fc1c0;stroke-width:2.2;"/>
    <path id="circle_Function:GO.0005539" data-original-stroke="grey" clip-path="url(#p6ffb92b7db)" d="M 237.162982 200.428411 &#10;C 239.007423 200.428411 240.776568 199.695607 242.080785 198.39139 &#10;C 243.385001 197.087174 244.117805 195.318028 244.117805 193.473588 &#10;C 244.117805 191.629147 243.385001 189.860001 242.080785 188.555785 &#10;C 240.776568 187.251568 239.007423 186.518764 237.162982 186.518764 &#10;C 235.318541 186.518764 233.549396 187.251568 232.245179 188.555785 &#10;C 230.940963 189.860001 230.208159 191.629147 230.208159 193.473588 &#10;C 230.208159 195.318028 230.940963 197.087174 232.245179 198.39139 &#10;C 233.549396 199.695607 235.318541 200.428411 237.162982 200.428411 &#10;z&#10;" style="fill:#1f7ab5;stroke:#1f7ab5;stroke-width:2.2;"/>
    <path id="circle_Function:GO.0008201" data-original-stroke="grey" clip-path="url(#p6ffb92b7db)" d="M 185.077005 228.217752 &#10;C 186.677326 228.217752 188.212317 227.581938 189.343915 226.45034 &#10;C 190.475513 225.318743 191.111327 223.783751 191.111327 222.18343 &#10;C 191.111327 220.583109 190.475513 219.048118 189.343915 217.91652 &#10;C 188.212317 216.784922 186.677326 216.149108 185.077005 216.149108 &#10;C 183.476684 216.149108 181.941693 216.784922 180.810095 217.91652 &#10;C 179.678497 219.048118 179.042683 220.583109 179.042683 222.18343 &#10;C 179.042683 223.783751 179.678497 225.318743 180.810095 226.45034 &#10;C 181.941693 227.581938 183.476684 228.217752 185.077005 228.217752 &#10;z&#10;" style="fill:#234da0;stroke:#234da0;stroke-width:2.2;"/>
    <path id="circle_Function:GO.0016918" data-original-stroke="grey" clip-path="url(#p6ffb92b7db)" d="M 237.162982 254.428807 &#10;C 238.100617 254.428807 238.999974 254.056281 239.662982 253.393273 &#10;C 240.32599 252.730265 240.698516 251.830908 240.698516 250.893273 &#10;C 240.698516 249.955639 240.32599 249.056281 239.662982 248.393273 &#10;C 238.999974 247.730265 238.100617 247.357739 237.162982 247.357739 &#10;C 236.225348 247.357739 235.32599 247.730265 234.662982 248.393273 &#10;C 233.999974 249.056281 233.627448 249.955639 233.627448 250.893273 &#10;C 233.627448 251.830908 233.999974 252.730265 234.662982 253.393273 &#10;C 235.32599 254.056281 236.225348 254.428807 237.162982 254.428807 &#10;z&#10;" style="fill:#234da0;stroke:#234da0;stroke-width:2.2;"/>
    <path id="circle_Function:GO.0005102" data-original-stroke="grey" clip-path="url(#p6ffb92b7db)" d="M 224.141488 291.850565 &#10;C 227.389549 291.850565 230.505016 290.560096 232.801742 288.26337 &#10;C 235.098468 285.966644 236.388937 282.851177 236.388937 279.603116 &#10;C 236.388937 276.355054 235.098468 273.239588 232.801742 270.942862 &#10;C 230.505016 268.646136 227.389549 267.355667 224.141488 267.355667 &#10;C 220.893426 267.355667 217.77796 268.646136 215.481234 270.942862 &#10;C 213.184508 273.239588 211.894039 276.355054 211.894039 279.603116 &#10;C 211.894039 282.851177 213.184508 285.966644 215.481234 288.26337 &#10;C 217.77796 290.560096 220.893426 291.850565 224.141488 291.850565 &#10;z&#10;" style="fill:#5fc1c0;stroke:#5fc1c0;stroke-width:2.2;"/>
    <path id="circle_Function:GO.0005198" data-original-stroke="grey" clip-path="url(#p6ffb92b7db)" d="M 172.055511 317.811242 &#10;C 174.574485 317.811242 176.990628 316.810443 178.771812 315.029259 &#10;C 180.552995 313.248075 181.553795 310.831933 181.553795 308.312959 &#10;C 181.553795 305.793984 180.552995 303.377842 178.771812 301.596658 &#10;C 176.990628 299.815474 174.574485 298.814675 172.055511 298.814675 &#10;C 169.536537 298.814675 167.120394 299.815474 165.33921 301.596658 &#10;C 163.558026 303.377842 162.557227 305.793984 162.557227 308.312959 &#10;C 162.557227 310.831933 163.558026 313.248075 165.33921 315.029259 &#10;C 167.120394 316.810443 169.536537 317.811242 172.055511 317.811242 &#10;z&#10;" style="fill:#1f7ab5;stroke:#1f7ab5;stroke-width:2.2;"/>
   </g>
   <g id="PathCollection_1">
    <path clip-path="url(#p6ffb92b7db)" d="M 523.635855 56.435234 &#10;C 525.362555 56.435234 527.018767 55.749209 528.239729 54.528248 &#10;C 529.46069 53.307286 530.146716 51.651074 530.146716 49.924374 &#10;C 530.146716 48.197674 529.46069 46.541462 528.239729 45.3205 &#10;C 527.018767 44.099539 525.362555 43.413513 523.635855 43.413513 &#10;C 521.909155 43.413513 520.252943 44.099539 519.031981 45.3205 &#10;C 517.81102 46.541462 517.124995 48.197674 517.124995 49.924374 &#10;C 517.124995 51.651074 517.81102 53.307286 519.031981 54.528248 &#10;C 520.252943 55.749209 521.909155 56.435234 523.635855 56.435234 &#10;z&#10;" style="fill:none;stroke:#808080;stroke-opacity:0.45;stroke-width:2.2;"/>
    <path clip-path="url(#p6ffb92b7db)" d="M 517.125108 86.006315 &#10;C 519.080211 86.006315 520.955502 85.229544 522.337968 83.847077 &#10;C 523.720435 82.46461 524.497206 80.58932 524.497206 78.634217 &#10;C 524.497206 76.679114 523.720435 74.803823 522.337968 73.421356 &#10;C 520.955502 72.03889 519.080211 71.262119 517.125108 71.262119 &#10;C 515.170005 71.262119 513.294714 72.03889 511.912248 73.421356 &#10;C 510.529781 74.803823 509.75301 76.679114 509.75301 78.634217 &#10;C 509.75301 80.58932 510.529781 82.46461 511.912248 83.847077 &#10;C 513.294714 85.229544 515.170005 86.006315 517.125108 86.006315 &#10;z&#10;" style="fill:none;stroke:#808080;stroke-opacity:0.45;stroke-width:2.2;"/>
    <path clip-path="url(#p6ffb92b7db)" d="M 380.399419 111.642694 &#10;C 381.53943 111.642694 382.632903 111.189763 383.439012 110.383653 &#10;C 384.245122 109.577544 384.698053 108.484071 384.698053 107.344059 &#10;C 384.698053 106.204048 384.245122 105.110575 383.439012 104.304466 &#10;C 382.632903 103.498356 381.53943 103.045425 380.399419 103.045425 &#10;C 379.259407 103.045425 378.165934 103.498356 377.359825 104.304466 &#10;C 376.553715 105.110575 376.100784 106.204048 376.100784 107.344059 &#10;C 376.100784 108.484071 376.553715 109.577544 377.359825 110.383653 &#10;C 378.165934 111.189763 379.259407 111.642694 380.399419 111.642694 &#10;z&#10;" style="fill:none;stroke:#808080;stroke-opacity:0.45;stroke-width:2.2;"/>
    <path clip-path="url(#p6ffb92b7db)" d="M 354.35643 145.552186 &#10;C 356.875404 145.552186 359.291547 144.551387 361.072731 142.770203 &#10;C 362.853915 140.989019 363.854714 138.572876 363.854714 136.053902 &#10;C 363.854714 133.534928 362.853915 131.118785 361.072731 129.337601 &#10;C 359.291547 127.556418 356.875404 126.555619 354.35643 126.555619 &#10;C 351.837456 126.555619 349.421313 127.556418 347.640129 129.337601 &#10;C 345.858946 131.118785 344.858147 133.534928 344.858147 136.053902 &#10;C 344.858147 138.572876 345.858946 140.989019 347.640129 142.770203 &#10;C 349.421313 144.551387 351.837456 145.552186 354.35643 145.552186 &#10;z&#10;" style="fill:none;stroke:#808080;stroke-opacity:0.45;stroke-width:2.2;"/>
    <path clip-path="url(#p6ffb92b7db)" d="M 282.738212 173.610262 &#10;C 285.084336 173.610262 287.334684 172.678137 288.993644 171.019177 &#10;C 290.652604 169.360217 291.584729 167.109869 291.584729 164.763745 &#10;C 291.584729 162.417621 290.652604 160.167273 288.993644 158.508312 &#10;C 287.334684 156.849352 285.084336 155.917228 282.738212 155.917228 &#10;C 280.392088 155.917228 278.14174 156.849352 276.482779 158.508312 &#10;C 274.823819 160.167273 273.891694 162.417621 273.891694 164.763745 &#10;C 273.891694 167.109869 274.823819 169.360217 276.482779 171.019177 &#10;C 278.14174 172.678137 280.392088 173.610262 282.738212 173.610262 &#10;z&#10;" style="fill:none;stroke:#808080;stroke-opacity:0.45;stroke-width:2.2;"/>
    <path clip-path="url(#p6ffb92b7db)" d="M 237.162982 200.428411 &#10;C 239.007423 200.428411 240.776568 199.695607 242.080785 198.39139 &#10;C 243.385001 197.087174 244.117805 195.318028 244.117805 193.473588 &#10;C 244.117805 191.629147 243.385001 189.860001 242.080785 188.555785 &#10;C 240.776568 187.251568 239.007423 186.518764 237.162982 186.518764 &#10;C 235.318541 186.518764 233.549396 187.251568 232.245179 188.555785 &#10;C 230.940963 189.860001 230.208159 191.629147 230.208159 193.473588 &#10;C 230.208159 195.318028 230.940963 197.087174 232.245179 198.39139 &#10;C 233.549396 199.695607 235.318541 200.428411 237.162982 200.428411 &#10;z&#10;" style="fill:none;stroke:#808080;stroke-opacity:0.45;stroke-width:2.2;"/>
    <path clip-path="url(#p6ffb92b7db)" d="M 185.077005 228.217752 &#10;C 186.677326 228.217752 188.212317 227.581938 189.343915 226.45034 &#10;C 190.475513 225.318743 191.111327 223.783751 191.111327 222.18343 &#10;C 191.111327 220.583109 190.475513 219.048118 189.343915 217.91652 &#10;C 188.212317 216.784922 186.677326 216.149108 185.077005 216.149108 &#10;C 183.476684 216.149108 181.941693 216.784922 180.810095 217.91652 &#10;C 179.678497 219.048118 179.042683 220.583109 179.042683 222.18343 &#10;C 179.042683 223.783751 179.678497 225.318743 180.810095 226.45034 &#10;C 181.941693 227.581938 183.476684 228.217752 185.077005 228.217752 &#10;z&#10;" style="fill:none;stroke:#808080;stroke-opacity:0.45;stroke-width:2.2;"/>
    <path clip-path="url(#p6ffb92b7db)" d="M 237.162982 254.428807 &#10;C 238.100617 254.428807 238.999974 254.056281 239.662982 253.393273 &#10;C 240.32599 252.730265 240.698516 251.830908 240.698516 250.893273 &#10;C 240.698516 249.955639 240.32599 249.056281 239.662982 248.393273 &#10;C 238.999974 247.730265 238.100617 247.357739 237.162982 247.357739 &#10;C 236.225348 247.357739 235.32599 247.730265 234.662982 248.393273 &#10;C 233.999974 249.056281 233.627448 249.955639 233.627448 250.893273 &#10;C 233.627448 251.830908 233.999974 252.730265 234.662982 253.393273 &#10;C 235.32599 254.056281 236.225348 254.428807 237.162982 254.428807 &#10;z&#10;" style="fill:none;stroke:#808080;stroke-opacity:0.45;stroke-width:2.2;"/>
    <path clip-path="url(#p6ffb92b7db)" d="M 224.141488 291.850565 &#10;C 227.389549 291.850565 230.505016 290.560096 232.801742 288.26337 &#10;C 235.098468 285.966644 236.388937 282.851177 236.388937 279.603116 &#10;C 236.388937 276.355054 235.098468 273.239588 232.801742 270.942862 &#10;C 230.505016 268.646136 227.389549 267.355667 224.141488 267.355667 &#10;C 220.893426 267.355667 217.77796 268.646136 215.481234 270.942862 &#10;C 213.184508 273.239588 211.894039 276.355054 211.894039 279.603116 &#10;C 211.894039 282.851177 213.184508 285.966644 215.481234 288.26337 &#10;C 217.77796 290.560096 220.893426 291.850565 224.141488 291.850565 &#10;z&#10;" style="fill:none;stroke:#808080;stroke-opacity:0.45;stroke-width:2.2;"/>
    <path clip-path="url(#p6ffb92b7db)" d="M 172.055511 317.811242 &#10;C 174.574485 317.811242 176.990628 316.810443 178.771812 315.029259 &#10;C 180.552995 313.248075 181.553795 310.831933 181.553795 308.312959 &#10;C 181.553795 305.793984 180.552995 303.377842 178.771812 301.596658 &#10;C 176.990628 299.815474 174.574485 298.814675 172.055511 298.814675 &#10;C 169.536537 298.814675 167.120394 299.815474 165.33921 301.596658 &#10;C 163.558026 303.377842 162.557227 305.793984 162.557227 308.312959 &#10;C 162.557227 310.831933 163.558026 313.248075 165.33921 315.029259 &#10;C 167.120394 316.810443 169.536537 317.811242 172.055511 317.811242 &#10;z&#10;" style="fill:none;stroke:#808080;stroke-opacity:0.45;stroke-width:2.2;"/>
   </g>
   <g id="text_18">
    <text style="font-family:Arial;font-size:11px;font-stretch:normal;font-style:normal;font-weight:normal;text-anchor:middle;" transform="rotate(-0, 347.845683, 15.214531)" x="347.845683" y="15.214531">Molecular Function (Gene Ontology) enrichment</text>
   </g>
   <g id="line2d_33">
    <path clip-path="url(#p6ffb92b7db)" d="M 523.635855 46.711368 &#10;L 523.635855 53.13738 &#10;" style="fill:none;stroke:#808080;stroke-dasharray:1.85,0.8;stroke-dashoffset:0;stroke-width:0.5;"/>
   </g>
   <g id="line2d_34">
    <path clip-path="url(#p6ffb92b7db)" d="M 517.125108 74.514978 &#10;L 517.125108 82.753455 &#10;" style="fill:none;stroke:#808080;stroke-dasharray:1.85,0.8;stroke-dashoffset:0;stroke-width:0.5;"/>
   </g>
   <g id="line2d_35">
    <path clip-path="url(#p6ffb92b7db)" d="M 380.399419 105.943518 &#10;L 380.399419 108.7446 &#10;" style="fill:none;stroke:#808080;stroke-dasharray:1.85,0.8;stroke-dashoffset:0;stroke-width:0.5;"/>
   </g>
   <g id="line2d_36">
    <path clip-path="url(#p6ffb92b7db)" d="M 354.35643 129.215967 &#10;L 354.35643 142.891838 &#10;" style="fill:none;stroke:#808080;stroke-dasharray:1.85,0.8;stroke-dashoffset:0;stroke-width:0.5;"/>
   </g>
   <g id="line2d_37">
    <path clip-path="url(#p6ffb92b7db)" d="M 282.738212 158.832042 &#10;L 282.738212 170.695448 &#10;" style="fill:none;stroke:#808080;stroke-dasharray:1.85,0.8;stroke-dashoffset:0;stroke-width:0.5;"/>
   </g>
   <g id="line2d_38">
    <path clip-path="url(#p6ffb92b7db)" d="M 237.162982 189.807466 &#10;L 237.162982 197.13971 &#10;" style="fill:none;stroke:#808080;stroke-dasharray:1.85,0.8;stroke-dashoffset:0;stroke-width:0.5;"/>
   </g>
   <g id="line2d_39">
    <path clip-path="url(#p6ffb92b7db)" d="M 185.077005 219.423541 &#10;L 185.077005 224.94332 &#10;" style="fill:none;stroke:#808080;stroke-dasharray:1.85,0.8;stroke-dashoffset:0;stroke-width:0.5;"/>
   </g>
   <g id="line2d_40">
    <path clip-path="url(#p6ffb92b7db)" d="M 237.162982 249.945848 &#10;L 237.162982 251.840698 &#10;" style="fill:none;stroke:#808080;stroke-dasharray:1.85,0.8;stroke-dashoffset:0;stroke-width:0.5;"/>
   </g>
   <g id="line2d_41">
    <path clip-path="url(#p6ffb92b7db)" d="M 224.141488 268.234018 &#10;L 224.141488 290.972214 &#10;" style="fill:none;stroke:#808080;stroke-dasharray:1.85,0.8;stroke-dashoffset:0;stroke-width:0.5;"/>
   </g>
   <g id="line2d_42">
    <path clip-path="url(#p6ffb92b7db)" d="M 172.055511 301.475023 &#10;L 172.055511 315.150894 &#10;" style="fill:none;stroke:#808080;stroke-dasharray:1.85,0.8;stroke-dashoffset:0;stroke-width:0.5;"/>
   </g>
   <g id="invisibleRectangle_Function:GO.0005198" style="cursor: pointer;">
    <path clip-path="url(#p6ffb92b7db)" d="M 151.263125 294.532234 &#10;L 544.428241 294.532234 &#10;L 544.428241 320.371092 &#10;L 151.263125 320.371092 &#10;z&#10;" style="fill:#ffffff;opacity:0.01;"/>
   </g>
   <g id="invisibleRectangle_Function:GO.0005102" style="cursor: pointer;">
    <path clip-path="url(#p6ffb92b7db)" d="M 151.263125 265.822391 &#10;L 544.428241 265.822391 &#10;L 544.428241 291.66125 &#10;L 151.263125 291.66125 &#10;z&#10;" style="fill:#ffffff;opacity:0.01;"/>
   </g>
   <g id="invisibleRectangle_Function:GO.0016918" style="cursor: pointer;">
    <path clip-path="url(#p6ffb92b7db)" d="M 151.263125 237.112549 &#10;L 544.428241 237.112549 &#10;L 544.428241 262.951407 &#10;L 151.263125 262.951407 &#10;z&#10;" style="fill:#ffffff;opacity:0.01;"/>
   </g>
   <g id="invisibleRectangle_Function:GO.0008201" style="cursor: pointer;">
    <path clip-path="url(#p6ffb92b7db)" d="M 151.263125 208.402706 &#10;L 544.428241 208.402706 &#10;L 544.428241 234.241564 &#10;L 151.263125 234.241564 &#10;z&#10;" style="fill:#ffffff;opacity:0.01;"/>
   </g>
   <g id="invisibleRectangle_Function:GO.0005539" style="cursor: pointer;">
    <path clip-path="url(#p6ffb92b7db)" d="M 151.263125 179.692863 &#10;L 544.428241 179.692863 &#10;L 544.428241 205.531722 &#10;L 151.263125 205.531722 &#10;z&#10;" style="fill:#ffffff;opacity:0.01;"/>
   </g>
   <g id="invisibleRectangle_Function:GO.0048018" style="cursor: pointer;">
    <path clip-path="url(#p6ffb92b7db)" d="M 151.263125 150.98302 &#10;L 544.428241 150.98302 &#10;L 544.428241 176.821879 &#10;L 151.263125 176.821879 &#10;z&#10;" style="fill:#ffffff;opacity:0.01;"/>
   </g>
   <g id="invisibleRectangle_Function:GO.0030545" style="cursor: pointer;">
    <path clip-path="url(#p6ffb92b7db)" d="M 151.263125 122.273178 &#10;L 544.428241 122.273178 &#10;L 544.428241 148.112036 &#10;L 151.263125 148.112036 &#10;z&#10;" style="fill:#ffffff;opacity:0.01;"/>
   </g>
   <g id="invisibleRectangle_Function:GO.0005104" style="cursor: pointer;">
    <path clip-path="url(#p6ffb92b7db)" d="M 151.263125 93.563335 &#10;L 544.428241 93.563335 &#10;L 544.428241 119.402193 &#10;L 151.263125 119.402193 &#10;z&#10;" style="fill:#ffffff;opacity:0.01;"/>
   </g>
   <g id="invisibleRectangle_Function:GO.0008083" style="cursor: pointer;">
    <path clip-path="url(#p6ffb92b7db)" d="M 151.263125 64.853492 &#10;L 544.428241 64.853492 &#10;L 544.428241 90.692351 &#10;L 151.263125 90.692351 &#10;z&#10;" style="fill:#ffffff;opacity:0.01;"/>
   </g>
   <g id="invisibleRectangle_Function:GO.0030527" style="cursor: pointer;">
    <path clip-path="url(#p6ffb92b7db)" d="M 151.263125 36.143649 &#10;L 544.428241 36.143649 &#10;L 544.428241 61.982508 &#10;L 151.263125 61.982508 &#10;z&#10;" style="fill:#ffffff;opacity:0.01;"/>
   </g>
  </g>
  <g id="axes_2">
   <g id="patch_11">
    <path d="M 550.908241 337.022801 &#10;L 649.19952 337.022801 &#10;L 649.19952 21.214531 &#10;L 550.908241 21.214531 &#10;z&#10;" style="fill:none;"/>
   </g>
   <g id="patch_12">
    <path clip-path="url(#p4b7d345260)" d="M 550.908241 320.514642 &#10;L 563.194651 320.514642 &#10;L 563.194651 294.388685 &#10;L 550.908241 294.388685 &#10;z&#10;" style="fill:#1f7ab5;"/>
   </g>
   <g id="patch_13">
    <path clip-path="url(#p4b7d345260)" d="M 550.908241 291.804799 &#10;L 563.194651 291.804799 &#10;L 563.194651 265.678842 &#10;L 550.908241 265.678842 &#10;z&#10;" style="fill:#5fc1c0;"/>
   </g>
   <g id="patch_14">
    <path clip-path="url(#p4b7d345260)" d="M 550.908241 263.094956 &#10;L 563.194651 263.094956 &#10;L 563.194651 236.968999 &#10;L 550.908241 236.968999 &#10;z&#10;" style="fill:#234da0;"/>
   </g>
   <g id="patch_15">
    <path clip-path="url(#p4b7d345260)" d="M 550.908241 234.385113 &#10;L 563.194651 234.385113 &#10;L 563.194651 179.549314 &#10;L 550.908241 179.549314 &#10;z&#10;" style="fill:#1f7ab5;"/>
   </g>
   <g id="patch_16">
    <path clip-path="url(#p4b7d345260)" d="M 550.908241 176.965428 &#10;L 563.194651 176.965428 &#10;L 563.194651 122.129628 &#10;L 550.908241 122.129628 &#10;z&#10;" style="fill:#a0dab8;"/>
   </g>
   <g id="patch_17">
    <path clip-path="url(#p4b7d345260)" d="M 550.908241 119.545743 &#10;L 563.194651 119.545743 &#10;L 563.194651 93.419786 &#10;L 550.908241 93.419786 &#10;z&#10;" style="fill:#2fa4c2;"/>
   </g>
   <g id="patch_18">
    <path clip-path="url(#p4b7d345260)" d="M 550.908241 90.8359 &#10;L 563.194651 90.8359 &#10;L 563.194651 64.709943 &#10;L 550.908241 64.709943 &#10;z&#10;" style="fill:#d6efb3;"/>
   </g>
   <g id="patch_19">
    <path clip-path="url(#p4b7d345260)" d="M 550.908241 62.126057 &#10;L 563.194651 62.126057 &#10;L 563.194651 36.0001 &#10;L 550.908241 36.0001 &#10;z&#10;" style="fill:#d6efb3;"/>
   </g>
   <g id="matplotlib.axis_3"/>
   <g id="matplotlib.axis_4"/>
   <g id="text_19">
    <text style="font-family:Arial;font-size:9px;font-stretch:normal;font-style:normal;font-weight:normal;" transform="translate(577.809811 222.384125)rotate(-90)">Groups at similarity 0.8</text>
   </g>
  </g>
  <g id="axes_3">
   <g id="patch_20">
    <path d="M 587.39976 130.19976 &#10;L 652.19976 130.19976 &#10;L 652.19976 22.19976 &#10;L 587.39976 22.19976 &#10;z&#10;" style="fill:none;"/>
   </g>
   <g id="PathCollection_2">
    <defs>
     <path d="M -70.710678 70.710678 &#10;L 70.710678 70.710678 &#10;L 70.710678 -70.710678 &#10;L -70.710678 -70.710678 &#10;z&#10;" id="ma3608e0086" style="stroke:#ffffff;stroke-opacity:0.6;"/>
    </defs>
    <g clip-path="url(#pf7cef643b6)">
     <use style="fill:#ffffff;fill-opacity:0.6;stroke:#ffffff;stroke-opacity:0.6;" x="619.79976" xlink:href="#ma3608e0086" y="76.19976"/>
    </g>
   </g>
   <g id="matplotlib.axis_5">
    <g id="xtick_7"/>
    <g id="xtick_8"/>
    <g id="xtick_9"/>
   </g>
   <g id="matplotlib.axis_6">
    <g id="ytick_11"/>
    <g id="ytick_12"/>
    <g id="ytick_13"/>
    <g id="ytick_14"/>
    <g id="ytick_15"/>
   </g>
  </g>
  <g id="axes_4">
   <g id="patch_21">
    <path d="M 593.87976 126.59976 &#10;L 604.67976 126.59976 &#10;L 604.67976 40.19976 &#10;L 593.87976 40.19976 &#10;z&#10;" style="fill:none;"/>
   </g>
   <g id="patch_22">
    <path clip-path="url(#p6775705ec6)" d="M 593.87976 40.19976 &#10;L 593.87976 54.59976 &#10;L 593.87976 112.19976 &#10;L 593.87976 126.59976 &#10;L 604.67976 126.59976 &#10;L 604.67976 112.19976 &#10;L 604.67976 54.59976 &#10;L 604.67976 40.19976 &#10;L 604.67976 40.19976 &#10;z&#10;" style="fill:#ffffff;stroke:#ffffff;stroke-linejoin:miter;stroke-width:0.01;"/>
   </g>
   <g id="QuadMesh_1">
    <path clip-path="url(#p6775705ec6)" d="M 593.87976 40.19976 &#10;L 604.67976 40.19976 &#10;L 604.67976 54.59976 &#10;L 593.87976 54.59976 &#10;L 593.87976 40.19976 &#10;" style="fill:#d6efb3;"/>
    <path clip-path="url(#p6775705ec6)" d="M 593.87976 54.59976 &#10;L 604.67976 54.59976 &#10;L 604.67976 68.99976 &#10;L 593.87976 68.99976 &#10;L 593.87976 54.59976 &#10;" style="fill:#a0dab8;"/>
    <path clip-path="url(#p6775705ec6)" d="M 593.87976 68.99976 &#10;L 604.67976 68.99976 &#10;L 604.67976 83.39976 &#10;L 593.87976 83.39976 &#10;L 593.87976 68.99976 &#10;" style="fill:#5fc1c0;"/>
    <path clip-path="url(#p6775705ec6)" d="M 593.87976 83.39976 &#10;L 604.67976 83.39976 &#10;L 604.67976 97.79976 &#10;L 593.87976 97.79976 &#10;L 593.87976 83.39976 &#10;" style="fill:#2fa4c2;"/>
    <path clip-path="url(#p6775705ec6)" d="M 593.87976 97.79976 &#10;L 604.67976 97.79976 &#10;L 604.67976 112.19976 &#10;L 593.87976 112.19976 &#10;L 593.87976 97.79976 &#10;" style="fill:#1f7ab5;"/>
    <path clip-path="url(#p6775705ec6)" d="M 593.87976 112.19976 &#10;L 604.67976 112.19976 &#10;L 604.67976 126.59976 &#10;L 593.87976 126.59976 &#10;L 593.87976 112.19976 &#10;" style="fill:#234da0;"/>
   </g>
   <g id="matplotlib.axis_7"/>
   <g id="matplotlib.axis_8">
    <g id="ytick_16">
     <g id="line2d_43">
      <defs>
       <path d="M 0 0 &#10;L 3.5 0 &#10;" id="mac00a2fcce" style="stroke:#000000;stroke-width:0.8;"/>
      </defs>
      <g>
       <use style="stroke:#000000;stroke-width:0.8;" x="604.67976" xlink:href="#mac00a2fcce" y="119.39976"/>
      </g>
     </g>
     <g id="text_20">
      <text style="font-family:Arial;font-size:9px;font-stretch:normal;font-style:normal;font-weight:normal;text-anchor:start;" transform="rotate(-0, 611.67976, 122.620776)" x="611.67976" y="122.620776">4.1e-04</text>
     </g>
    </g>
    <g id="ytick_17">
     <g id="line2d_44">
      <g>
       <use style="stroke:#000000;stroke-width:0.8;" x="604.67976" xlink:href="#mac00a2fcce" y="104.99976"/>
      </g>
     </g>
     <g id="text_21">
      <text style="font-family:Arial;font-size:9px;font-stretch:normal;font-style:normal;font-weight:normal;text-anchor:start;" transform="rotate(-0, 611.67976, 108.220776)" x="611.67976" y="108.220776">1.4e-04</text>
     </g>
    </g>
    <g id="ytick_18">
     <g id="line2d_45">
      <g>
       <use style="stroke:#000000;stroke-width:0.8;" x="604.67976" xlink:href="#mac00a2fcce" y="90.59976"/>
      </g>
     </g>
     <g id="text_22">
      <text style="font-family:Arial;font-size:9px;font-stretch:normal;font-style:normal;font-weight:normal;text-anchor:start;" transform="rotate(-0, 611.67976, 93.820776)" x="611.67976" y="93.820776">5.1e-05</text>
     </g>
    </g>
    <g id="ytick_19">
     <g id="line2d_46">
      <g>
       <use style="stroke:#000000;stroke-width:0.8;" x="604.67976" xlink:href="#mac00a2fcce" y="76.19976"/>
      </g>
     </g>
     <g id="text_23">
      <text style="font-family:Arial;font-size:9px;font-stretch:normal;font-style:normal;font-weight:normal;text-anchor:start;" transform="rotate(-0, 611.67976, 79.420776)" x="611.67976" y="79.420776">1.7e-05</text>
     </g>
    </g>
    <g id="ytick_20">
     <g id="line2d_47">
      <g>
       <use style="stroke:#000000;stroke-width:0.8;" x="604.67976" xlink:href="#mac00a2fcce" y="61.79976"/>
      </g>
     </g>
     <g id="text_24">
      <text style="font-family:Arial;font-size:9px;font-stretch:normal;font-style:normal;font-weight:normal;text-anchor:start;" transform="rotate(-0, 611.67976, 65.020776)" x="611.67976" y="65.020776">6.1e-06</text>
     </g>
    </g>
    <g id="ytick_21">
     <g id="line2d_48">
      <g>
       <use style="stroke:#000000;stroke-width:0.8;" x="604.67976" xlink:href="#mac00a2fcce" y="47.39976"/>
      </g>
     </g>
     <g id="text_25">
      <text style="font-family:Arial;font-size:9px;font-stretch:normal;font-style:normal;font-weight:normal;text-anchor:start;" transform="rotate(-0, 611.67976, 50.620776)" x="611.67976" y="50.620776">2.1e-06</text>
     </g>
    </g>
   </g>
   <g id="LineCollection_1"/>
   <g id="patch_23">
    <path d="M 593.87976 40.19976 &#10;L 593.87976 54.59976 &#10;L 593.87976 112.19976 &#10;L 593.87976 126.59976 &#10;L 604.67976 126.59976 &#10;L 604.67976 112.19976 &#10;L 604.67976 54.59976 &#10;L 604.67976 40.19976 &#10;z&#10;" style="fill:none;"/>
   </g>
   <g id="text_26">
    <text style="font-family:Arial;font-size:9px;font-stretch:normal;font-style:normal;font-weight:normal;text-anchor:middle;" transform="rotate(-0, 599.27976, 34.19976)" x="599.27976" y="34.19976">FDR</text>
   </g>
  </g>
  <g id="axes_5">
   <g id="patch_24">
    <path d="M 587.39976 261.87336 &#10;L 648.95976 261.87336 &#10;L 648.95976 136.87848 &#10;L 587.39976 136.87848 &#10;z&#10;" style="fill:none;"/>
   </g>
   <g id="PathCollection_3">
    <g clip-path="url(#p064bfdf116)">
     <use style="fill:#ffffff;fill-opacity:0.6;stroke:#ffffff;stroke-opacity:0.6;" x="618.17976" xlink:href="#ma3608e0086" y="199.37592"/>
    </g>
   </g>
   <g id="matplotlib.axis_9">
    <g id="xtick_10"/>
    <g id="xtick_11"/>
    <g id="xtick_12"/>
   </g>
   <g id="matplotlib.axis_10">
    <g id="ytick_22"/>
    <g id="ytick_23"/>
    <g id="ytick_24"/>
    <g id="ytick_25"/>
    <g id="ytick_26"/>
   </g>
  </g>
  <g id="axes_6">
   <g id="PathCollection_4">
    <defs>
     <path d="M 0 4.298635 &#10;C 1.140011 4.298635 2.233484 3.845703 3.039594 3.039594 &#10;C 3.845703 2.233484 4.298635 1.140011 4.298635 0 &#10;C 4.298635 -1.140011 3.845703 -2.233484 3.039594 -3.039594 &#10;C 2.233484 -3.845703 1.140011 -4.298635 0 -4.298635 &#10;C -1.140011 -4.298635 -2.233484 -3.845703 -3.039594 -3.039594 &#10;C -3.845703 -2.233484 -4.298635 -1.140011 -4.298635 0 &#10;C -4.298635 1.140011 -3.845703 2.233484 -3.039594 3.039594 &#10;C -2.233484 3.845703 -1.140011 4.298635 0 4.298635 &#10;z&#10;" id="m592d8cecb8" style="stroke:#b5c2a4;stroke-width:2.2;"/>
    </defs>
    <g clip-path="url(#p714c04cb3f)">
     <use style="fill:#d6efb3;stroke:#b5c2a4;stroke-width:2.2;" x="610.07976" xlink:href="#m592d8cecb8" y="166.288375"/>
    </g>
   </g>
   <g id="PathCollection_5">
    <defs>
     <path d="M 0 6.954823 &#10;C 1.844441 6.954823 3.613586 6.222019 4.917803 4.917803 &#10;C 6.222019 3.613586 6.954823 1.844441 6.954823 0 &#10;C 6.954823 -1.844441 6.222019 -3.613586 4.917803 -4.917803 &#10;C 3.613586 -6.222019 1.844441 -6.954823 0 -6.954823 &#10;C -1.844441 -6.954823 -3.613586 -6.222019 -4.917803 -4.917803 &#10;C -6.222019 -3.613586 -6.954823 -1.844441 -6.954823 0 &#10;C -6.954823 1.844441 -6.222019 3.613586 -4.917803 4.917803 &#10;C -3.613586 6.222019 -1.844441 6.954823 0 6.954823 &#10;z&#10;" id="mc02a7dc413" style="stroke:#b5c2a4;stroke-width:2.2;"/>
    </defs>
    <g clip-path="url(#p714c04cb3f)">
     <use style="fill:#d6efb3;stroke:#b5c2a4;stroke-width:2.2;" x="610.07976" xlink:href="#mc02a7dc413" y="185.782649"/>
    </g>
   </g>
   <g id="PathCollection_6">
    <defs>
     <path d="M 0 10.399624 &#10;C 2.758012 10.399624 5.403435 9.303854 7.353644 7.353644 &#10;C 9.303854 5.403435 10.399624 2.758012 10.399624 0 &#10;C 10.399624 -2.758012 9.303854 -5.403435 7.353644 -7.353644 &#10;C 5.403435 -9.303854 2.758012 -10.399624 0 -10.399624 &#10;C -2.758012 -10.399624 -5.403435 -9.303854 -7.353644 -7.353644 &#10;C -9.303854 -5.403435 -10.399624 -2.758012 -10.399624 0 &#10;C -10.399624 2.758012 -9.303854 5.403435 -7.353644 7.353644 &#10;C -5.403435 9.303854 -2.758012 10.399624 0 10.399624 &#10;z&#10;" id="m5cb431c4cc" style="stroke:#b5c2a4;stroke-width:2.2;"/>
    </defs>
    <g clip-path="url(#p714c04cb3f)">
     <use style="fill:#d6efb3;stroke:#b5c2a4;stroke-width:2.2;" x="610.07976" xlink:href="#m5cb431c4cc" y="211.394424"/>
    </g>
   </g>
   <g id="PathCollection_7">
    <defs>
     <path d="M 0 11.749191 &#10;C 3.115922 11.749191 6.104643 10.511222 8.307932 8.307932 &#10;C 10.511222 6.104643 11.749191 3.115922 11.749191 0 &#10;C 11.749191 -3.115922 10.511222 -6.104643 8.307932 -8.307932 &#10;C 6.104643 -10.511222 3.115922 -11.749191 0 -11.749191 &#10;C -3.115922 -11.749191 -6.104643 -10.511222 -8.307932 -8.307932 &#10;C -10.511222 -6.104643 -11.749191 -3.115922 -11.749191 0 &#10;C -11.749191 3.115922 -10.511222 6.104643 -8.307932 8.307932 &#10;C -6.104643 10.511222 -3.115922 11.749191 0 11.749191 &#10;z&#10;" id="mee5de21492" style="stroke:#b5c2a4;stroke-width:2.2;"/>
    </defs>
    <g clip-path="url(#p714c04cb3f)">
     <use style="fill:#d6efb3;stroke:#b5c2a4;stroke-width:2.2;" x="610.07976" xlink:href="#mee5de21492" y="241.450579"/>
    </g>
   </g>
   <g id="text_27">
    <text style="font-family:Arial;font-size:9px;font-stretch:normal;font-style:normal;font-weight:normal;text-anchor:start;" transform="rotate(-0, 626.27976, 169.744862)" x="626.27976" y="169.744862">5</text>
   </g>
   <g id="text_28">
    <text style="font-family:Arial;font-size:9px;font-stretch:normal;font-style:normal;font-weight:normal;text-anchor:start;" transform="rotate(-0, 626.27976, 189.239136)" x="626.27976" y="189.239136">10</text>
   </g>
   <g id="text_29">
    <text style="font-family:Arial;font-size:9px;font-stretch:normal;font-style:normal;font-weight:normal;text-anchor:start;" transform="rotate(-0, 626.27976, 214.85091)" x="626.27976" y="214.85091">20</text>
   </g>
   <g id="text_30">
    <text style="font-family:Arial;font-size:9px;font-stretch:normal;font-style:normal;font-weight:normal;text-anchor:start;" transform="rotate(-0, 626.27976, 244.907066)" x="626.27976" y="244.907066">25</text>
   </g>
   <g id="text_31">
    <text style="font-family:Arial;font-size:9px;font-stretch:normal;font-style:normal;font-weight:normal;text-anchor:middle;" transform="rotate(-0, 616.55976, 150.11976)" x="616.55976" y="150.11976">Gene count</text>
   </g>
  </g>
 </g>
 <defs>
  <clipPath id="p6ffb92b7db">
   <rect height="315.80827" width="393.165116" x="151.263125" y="21.214531"/>
  </clipPath>
  <clipPath id="p4b7d345260">
   <rect height="315.80827" width="98.291279" x="550.908241" y="21.214531"/>
  </clipPath>
  <clipPath id="pf7cef643b6">
   <rect height="108" width="64.8" x="587.39976" y="22.19976"/>
  </clipPath>
  <clipPath id="p6775705ec6">
   <rect height="86.4" width="10.8" x="593.87976" y="40.19976"/>
  </clipPath>
  <clipPath id="p064bfdf116">
   <rect height="124.99488" width="61.56" x="587.39976" y="136.87848"/>
  </clipPath>
  <clipPath id="p714c04cb3f">
   <rect height="146.88" width="32.4" x="593.87976" y="156.11976"/>
  </clipPath>
 </defs>
</svg>